inDegrees=yes
name=ik_S48_A11_T02
DataType=double
version=3
OpenSimVersion=4.3-2021-08-27-4bc7ad9
endheader
time	pelvis_tilt	pelvis_list	pelvis_rotation	pelvis_tx	pelvis_ty	pelvis_tz	hip_flexion_r	hip_adduction_r	hip_rotation_r	knee_angle_r	knee_angle_r_beta	ankle_angle_r	subtalar_angle_r	mtp_angle_r	hip_flexion_l	hip_adduction_l	hip_rotation_l	knee_angle_l	knee_angle_l_beta	ankle_angle_l	subtalar_angle_l	mtp_angle_l	lumbar_extension	lumbar_bending	lumbar_rotation	arm_flex_r	arm_add_r	arm_rot_r	elbow_flex_r	pro_sup_r	wrist_flex_r	wrist_dev_r	arm_flex_l	arm_add_l	arm_rot_l	elbow_flex_l	pro_sup_l	wrist_flex_l	wrist_dev_l
10.37999999999987	-1.469661690162112	-2.537405966852095	29.51104815769428	0	0.9399999999999999	0	32.89038475171259	-9.592768679699342	-9.009416426106567	37.77207210201512	0.6592470234808594	0	0	0	32.89038475171259	-9.592768679699342	-9.009416426106567	37.77207210201512	0.6592470234808594	0	0	0	-1.649338487040096	-1.972833007278781	9.31213707090502	35.9603992798262	-9.408443759556048	-14.41190022903663	1.703707268518256	122.3062666116056	0	0	15.20114327052345	-15.42110420204549	-8.623321000739075	12.70862240402963	125.036247218715	0	0
10.39999999999987	-1.518038271470758	-2.4084700437088	29.3752403127502	0	0.9399999999999999	0	32.89645861931944	-9.593458863642143	-9.010496411786434	37.77816696388349	0.6593533988879166	0	0	0	32.89645861931944	-9.593458863642143	-9.010496411786434	37.77816696388349	0.6593533988879166	0	0	0	-1.63040563283333	-1.829277529045736	9.258856499891902	35.92325703092618	-9.653312790418568	-14.09043864792483	-2.476871111189074	123.9555387280141	0	0	14.97870284072537	-15.28659497930138	-8.886700401681178	12.8931325762994	125.1668490637665	0	0
10.41999999999987	-1.577723102824863	-2.245426944133264	29.81096809924693	0	0.9399999999999999	0	33.08111994605508	-9.607947647138378	-9.036722138764889	38.01549080953847	0.6634954813880909	0	0	0	33.08111994605508	-9.607947647138378	-9.036722138764889	38.01549080953847	0.6634954813880909	0	0	0	-1.637679551733624	-1.665012344471465	8.606088152663407	26.44394925904487	-7.930223068660034	-11.77643534486449	3.179758785853382	121.7003455618401	0	0	14.75376323874326	-15.11787448533781	-9.086224577769661	12.9998799453385	125.1103252023306	0	0
10.43999999999987	-1.591059345273791	-2.130429400420611	29.67369784945813	0	0.9399999999999999	0	33.08744077642316	-9.608651769947778	-9.037834483728385	38.02182728400241	0.6636060737304551	0	0	0	33.08744077642316	-9.608651769947778	-9.037834483728385	38.02182728400241	0.6636060737304551	0	0	0	-1.588579637997058	-1.563342598254829	8.617697016219951	26.34554266798835	-8.081584194538614	-11.54083122958039	-0.1783899019504772	122.7042891924047	0	0	14.52818743740932	-15.05202782942545	-9.096931913444674	13.12923002747253	125.230366457326	0	0
10.45999999999987	-1.528330031118856	-1.861445862125693	30.47964777834328	0	0.9399999999999999	0	33.28431093324266	-9.623776780885199	-9.065479395249788	38.27499252451713	0.6680246407290404	0	0	0	33.28431093324266	-9.623776780885199	-9.065479395249788	38.27499252451713	0.6680246407290404	0	0	0	-1.459704551875251	-1.289603989777818	7.581628982466004	19.59577379732988	-6.837124799146292	-7.208782366100923	5.863003675841088	117.7844087227535	0	0	14.00584170869452	-14.79338334154897	-9.268291668182863	13.17742850894212	125.1188632000652	0	0
10.47999999999987	-1.528963942796081	-1.856557581520228	30.22713017135217	0	0.9399999999999999	0	33.28990559834458	-9.624389078047731	-9.066455359658264	38.28057683030109	0.6681221052514087	0	0	0	33.28990559834458	-9.624389078047731	-9.066455359658264	38.28057683030109	0.6681221052514087	0	0	0	-1.450539444599585	-1.298461548771117	7.832860692649614	17.19044383600629	-6.65551469715662	-8.896572499543828	5.318642850221832	119.6131885096034	0	0	13.96535638357327	-14.86923668653677	-9.099212250438777	13.19536456508566	125.3526847335075	0	0
10.49999999999986	-1.433553047052549	-1.49403880761235	29.69865871665716	0	0.9399999999999999	0	33.37023368635286	-9.630618271458447	-9.077785396095269	38.38315629220217	0.6699124546065065	0	0	0	33.37023368635286	-9.630618271458447	-9.077785396095269	38.38315629220217	0.6699124546065065	0	0	0	-1.184229220054987	-1.040294071302421	8.001397385212762	14.59909042976147	-7.113263615712995	-11.8444603401527	7.567044888062136	122.7449312678869	0	0	13.21444422375471	-14.52453412399121	-9.274890986156006	13.20703300059771	125.2090861648615	0	0
10.51999999999986	-1.284936912321398	-0.8256449484370264	29.14577975138207	0	0.9399999999999999	0	33.39391845047132	-9.632670904217743	-9.081348298520311	38.4117134721441	0.6704108714215777	0	0	0	33.39391845047132	-9.632670904217743	-9.081348298520311	38.4117134721441	0.6704108714215777	0	0	0	-0.7309394214230931	-0.528640997999521	7.607854168905048	11.79818977069587	-7.832697878835906	-13.3357340121127	4.510724121147691	125.1589921636717	0	0	11.87663892019886	-13.9008312919084	-10.03533281118415	13.21491902445636	125.3187354040928	0	0
10.53999999999986	-1.136316618330807	-0.4263929279181504	28.57189785906233	0	0.9399999999999999	0	33.40127535096419	-9.633466301165786	-9.082623949827866	38.41904705773447	0.6705388666361064	0	0	0	33.40127535096419	-9.633466301165786	-9.082623949827866	38.41904705773447	0.6705388666361064	0	0	0	-0.4058345264468414	-0.255760529860293	7.603672785945669	9.409886648325264	-8.213346285297263	-14.10507994623908	6.310905076281303	126.3035034898126	0	0	10.95677506275078	-13.60963935940957	-10.3464046394877	13.27165783170362	125.1449797245012	0	0
10.55999999999986	-0.9700699456362114	-0.06456122581689891	28.08399384969637	0	0.9399999999999999	0	33.40827608403286	-9.634220552758249	-9.083835401704512	38.42603929615812	0.6706609042186837	0	0	0	33.40827608403286	-9.634220552758249	-9.083835401704512	38.42603929615812	0.6706609042186837	0	0	0	-0.09129161927577115	-0.01307514125476726	7.577178718142451	7.25900311820975	-8.261224964985599	-13.69396571263014	4.118191462869418	125.5471703189177	0	0	10.0864255524399	-13.37223176359828	-10.61248243516337	13.36345030796931	125.1649922713533	0	0
10.57999999999986	-0.8584314982822469	0.2687833317078647	27.52239785663116	0	0.9399999999999999	0	33.41272107783016	-9.634696878570354	-9.084602051163415	38.43049665156948	0.6707386997465434	0	0	0	33.41272107783016	-9.634696878570354	-9.084602051163415	38.43049665156948	0.6707386997465434	0	0	0	0.1622013154981742	0.2300131487691341	7.42868615532431	5.506238902509859	-8.322951262007878	-12.85770227266436	4.06586996191018	124.8711174989873	0	0	9.320477497725305	-13.14253717003566	-11.09494607729239	13.38165291656767	125.0173864850462	0	0
10.59999999999986	-0.8733108918251902	0.3076154631061248	27.26386118635079	0	0.9399999999999999	0	33.41735187174719	-9.635193438512223	-9.085401205042306	38.43513419113627	0.6708196400811755	0	0	0	33.41735187174719	-9.635193438512223	-9.085401205042306	38.43513419113627	0.6708196400811755	0	0	0	0.1670657201856877	0.2731858803906608	7.3908333724723	3.80871524834133	-8.183163051611913	-12.40505920411306	4.865194617683183	123.8167330153158	0	0	9.189042955623693	-13.15808766411199	-11.12588791769355	13.5358471319747	125.0370635017424	0	0
10.61999999999986	-0.9260372601753689	0.260485648359422	27.15468612049009	0	0.9399999999999999	0	33.42064265909489	-9.635547744774895	-9.085970667256218	38.43841593140255	0.6708769172540173	0	0	0	33.42064265909489	-9.635547744774895	-9.085970667256218	38.43841593140255	0.6708769172540173	0	0	0	0.09854993294208245	0.2554301564103101	7.383469236249224	3.657443343498745	-8.232233898722614	-12.64220743581629	4.868755569036431	124.0345219973239	0	0	9.27983526130598	-13.22069150995202	-10.86464680194001	13.68892173763416	124.9561960580092	0	0
10.63999999999986	-1.042339149881587	0.136993249946468	27.03115647204603	0	0.9399999999999999	0	33.42390334897721	-9.635897824077277	-9.086533961685472	38.44167404549749	0.6709337820723795	0	0	0	33.42390334897721	-9.635897824077277	-9.086533961685472	38.44167404549749	0.6709337820723795	0	0	0	-0.06188122341800918	0.1993551586833888	7.389488564460424	4.004703163429624	-8.063935580501878	-12.55777804935279	5.036143471707107	123.4678784034895	0	0	9.594897759966369	-13.34555459131327	-10.5394048641882	13.89838525483347	124.8965565762805	0	0
